<svg width="380" height="102" viewBox="0 0 380 102" fill="none" xmlns="http://www.w3.org/2000/svg">
<path d="M48.512 61.44C49.536 65.1093 50.56 68.7787 51.584 72.448C52.608 76.1173 53.632 79.7867 54.656 83.456C55.168 85.1627 55.7653 86.3147 56.448 86.912C57.1307 87.424 58.0693 87.68 59.264 87.68C59.776 87.68 60.2027 87.68 60.544 87.68C60.9707 87.68 61.3547 87.68 61.696 87.68H63.616C63.104 89.5573 62.6347 91.4347 62.208 93.312C61.7813 95.104 61.312 96.9813 60.8 98.944C60.7147 99.3707 60.5013 99.712 60.16 99.968C59.8187 100.224 59.4347 100.352 59.008 100.352C58.6667 100.352 58.24 100.352 57.728 100.352C57.216 100.352 56.704 100.352 56.192 100.352C53.632 100.352 51.4987 100.053 49.792 99.456C48.1707 98.7733 46.8053 97.7493 45.696 96.384C44.672 95.0187 43.8187 93.184 43.136 90.88C41.9413 86.3573 40.704 81.8347 39.424 77.312C38.2293 72.7893 36.992 68.3093 35.712 63.872L48.512 61.44ZM15.104 10.368C20.9067 10.368 26.6667 10.368 32.384 10.368C38.1013 10.368 43.8613 10.368 49.664 10.368C53.9307 10.368 57.6853 10.9653 60.928 12.16C64.256 13.2693 66.9013 14.976 68.864 17.28C70.912 19.4987 72.2347 22.3147 72.832 25.728C73.4293 29.056 73.1733 32.9387 72.064 37.376L70.272 44.032C69.3333 47.9573 67.968 51.3707 66.176 54.272C64.384 57.088 62.208 59.4347 59.648 61.312C57.088 63.104 54.1013 64.4693 50.688 65.408C47.2747 66.3467 43.4347 66.816 39.168 66.816C35.9253 66.816 32.768 66.816 29.696 66.816C26.624 66.816 23.5947 66.816 20.608 66.816L19.072 67.456L22.272 55.168C25.1733 55.168 28.0747 55.168 30.976 55.168C33.9627 55.168 36.9067 55.168 39.808 55.168C42.88 55.168 45.4827 54.784 47.616 54.016C49.8347 53.1627 51.6267 51.84 52.992 50.048C54.4427 48.256 55.5093 45.952 56.192 43.136L57.984 35.968C58.6667 33.4933 58.88 31.4027 58.624 29.696C58.368 27.904 57.6853 26.496 56.576 25.472C55.7227 24.5333 54.5707 23.8507 53.12 23.424C51.7547 22.9973 49.9627 22.784 47.744 22.784C43.9893 22.784 40.192 22.784 36.352 22.784C32.512 22.784 28.672 22.784 24.832 22.784C21.0773 22.784 17.28 22.784 13.44 22.784C13.0133 22.784 12.7147 22.656 12.544 22.4C12.3733 22.0587 12.3307 21.7173 12.416 21.376C12.8427 19.4987 13.2693 17.664 13.696 15.872C14.208 13.9947 14.6773 12.16 15.104 10.368ZM13.824 99.968C11.6907 99.968 9.6 99.968 7.552 99.968C5.58934 99.968 3.49867 99.968 1.28 99.968C0.768003 99.968 0.426669 99.84 0.256003 99.584C0.085336 99.328 0.0426693 98.9867 0.128003 98.56C1.92 91.5627 3.62667 84.736 5.248 78.08C6.95467 71.3387 8.61867 64.6827 10.24 58.112C11.9467 51.456 13.6107 44.7573 15.232 38.016C16.9387 31.2747 18.688 24.448 20.48 17.536H35.584L33.664 20.352C32.896 23.424 32.128 26.496 31.36 29.568C30.592 32.64 29.8667 35.6693 29.184 38.656C27.8187 44.032 26.4533 49.3653 25.088 54.656C23.808 59.9467 22.4853 65.28 21.12 70.656C19.7547 76.032 18.3467 81.5787 16.896 87.296C16.2987 89.6 15.744 91.8187 15.232 93.952C14.72 96.0853 14.2507 98.0907 13.824 99.968ZM119.916 30.208C124.353 30.208 128.193 30.848 131.436 32.128C134.764 33.408 137.452 35.1147 139.5 37.248C141.548 39.3813 142.871 41.8987 143.468 44.8C144.151 47.616 144.065 50.6027 143.212 53.76L142.7 55.808C141.676 59.7333 140.012 62.9333 137.708 65.408C135.404 67.8827 132.503 69.7173 129.004 70.912C125.505 72.0213 121.281 72.576 116.332 72.576C114.54 72.576 112.364 72.576 109.804 72.576C107.329 72.576 104.599 72.576 101.612 72.576C98.7107 72.576 95.6813 72.576 92.524 72.576L86.764 73.216L88.556 63.616C92.14 63.616 95.5107 63.616 98.668 63.616C101.911 63.616 104.983 63.616 107.884 63.616C110.785 63.616 113.601 63.616 116.332 63.616C119.916 63.616 122.86 62.8907 125.164 61.44C127.553 59.904 129.132 57.5573 129.9 54.4C130.412 52.352 130.497 50.5173 130.156 48.896C129.9 47.1893 129.175 45.7387 127.98 44.544C126.956 43.6053 125.633 42.88 124.012 42.368C122.391 41.7707 120.343 41.472 117.868 41.472C114.54 41.472 111.553 42.0267 108.908 43.136C106.348 44.2453 104.129 46.08 102.252 48.64C100.375 51.1147 98.924 54.3573 97.9 58.368L94.188 73.216C93.42 76.032 93.164 78.5067 93.42 80.64C93.7613 82.688 94.5293 84.352 95.724 85.632C97.004 87.0827 98.7533 88.1493 100.972 88.832C103.276 89.5147 106.177 89.856 109.676 89.856C112.748 89.856 115.479 89.6853 117.868 89.344C120.343 89.0027 122.647 88.5333 124.78 87.936C126.999 87.2533 129.303 86.4427 131.692 85.504H133.74C133.399 87.1253 132.972 88.7893 132.46 90.496C132.033 92.1173 131.607 93.7813 131.18 95.488C131.095 95.6587 131.009 95.8293 130.924 96C130.839 96.1707 130.711 96.3413 130.54 96.512C129.687 97.3653 128.193 98.176 126.06 98.944C124.012 99.712 121.452 100.309 118.38 100.736C115.393 101.163 112.108 101.376 108.524 101.376C103.148 101.376 98.4547 100.693 94.444 99.328C90.5187 97.9627 87.3613 96 84.972 93.44C82.5827 90.7947 81.0467 87.6373 80.364 83.968C79.6813 80.2987 79.8947 76.16 81.004 71.552L84.46 57.728C85.74 52.864 87.4893 48.7253 89.708 45.312C91.9267 41.8133 94.572 38.9547 97.644 36.736C100.716 34.5173 104.129 32.896 107.884 31.872C111.724 30.7627 115.735 30.208 119.916 30.208ZM170.042 31.616C170.81 31.616 171.621 31.616 172.474 31.616C173.413 31.616 174.351 31.616 175.29 31.616C176.314 31.616 177.295 31.616 178.234 31.616C179.173 31.616 180.026 31.616 180.794 31.616C180.794 31.616 180.794 32.3413 180.794 33.792C180.794 35.2427 180.751 36.9493 180.666 38.912C180.666 40.7893 180.666 42.4533 180.666 43.904C180.666 45.2693 180.666 45.9947 180.666 46.08C179.471 50.8587 178.106 56.192 176.57 62.08C175.119 67.968 173.583 74.112 171.962 80.512C170.426 86.912 168.805 93.3973 167.098 99.968C166.159 99.968 165.135 99.968 164.026 99.968C162.917 99.968 161.807 99.968 160.698 99.968C159.589 99.968 158.479 99.968 157.37 99.968C156.261 99.968 155.237 99.968 154.298 99.968C154.127 99.968 153.957 99.9253 153.786 99.84C153.615 99.7547 153.487 99.6693 153.402 99.584C153.317 99.4133 153.231 99.2427 153.146 99.072C153.146 98.9013 153.189 98.7307 153.274 98.56C154.725 92.5013 156.175 86.4853 157.626 80.512C159.162 74.5387 160.698 68.5227 162.234 62.464C163.77 56.4053 165.306 50.3893 166.842 44.416C167.439 41.856 167.994 39.5093 168.506 37.376C169.103 35.1573 169.615 33.2373 170.042 31.616ZM204.218 30.208C206.607 30.208 208.698 30.6347 210.49 31.488C212.367 32.256 213.818 33.4933 214.842 35.2C215.951 36.8213 216.591 38.9547 216.762 41.6C216.933 44.16 216.591 47.1893 215.738 50.688C215.397 52.224 214.842 54.4427 214.074 57.344C213.391 60.2453 212.495 63.8293 211.386 68.096C210.362 72.2773 209.167 77.056 207.802 82.432C206.522 87.808 205.071 93.6533 203.45 99.968C202.426 99.968 201.103 99.968 199.482 99.968C197.861 99.968 196.197 99.968 194.49 99.968C192.869 99.968 191.503 99.968 190.394 99.968C190.138 99.968 189.925 99.9253 189.754 99.84C189.583 99.6693 189.455 99.4987 189.37 99.328C189.285 99.072 189.285 98.816 189.37 98.56C190.394 94.3787 191.418 90.24 192.442 86.144C193.466 82.048 194.447 78.1227 195.386 74.368C196.41 70.528 197.349 66.9013 198.202 63.488C199.141 59.9893 199.951 56.8747 200.634 54.144C201.317 51.4133 201.53 49.3227 201.274 47.872C201.103 46.4213 200.549 45.44 199.61 44.928C198.757 44.3307 197.562 44.032 196.026 44.032C194.149 44.032 192.143 44.6293 190.01 45.824C187.962 46.9333 185.786 48.64 183.482 50.944C181.178 53.1627 178.703 55.8933 176.058 59.136L176.442 43.008H182.97C185.018 40.2773 187.151 37.9733 189.37 36.096C191.674 34.2187 194.021 32.768 196.41 31.744C198.885 30.72 201.487 30.208 204.218 30.208ZM240.058 30.208C242.618 30.208 244.837 30.6773 246.714 31.616C248.591 32.4693 250.127 33.792 251.322 35.584C252.602 37.376 253.327 39.6373 253.498 42.368C253.754 45.0133 253.455 48.0853 252.602 51.584C252.005 53.8027 251.237 56.7467 250.298 60.416C249.445 64 248.463 68.0107 247.354 72.448C246.245 76.8 245.093 81.28 243.898 85.888C243.813 86.2293 243.77 86.5707 243.77 86.912C243.77 87.168 243.855 87.424 244.026 87.68C244.282 87.8507 244.538 88.0213 244.794 88.192C245.05 88.2773 245.391 88.32 245.818 88.32C246.074 88.32 246.33 88.32 246.586 88.32C246.842 88.32 247.098 88.32 247.354 88.32H248.634C248.207 90.0267 247.781 91.7333 247.354 93.44C246.927 95.1467 246.501 96.8533 246.074 98.56C245.989 98.9867 245.775 99.328 245.434 99.584C245.093 99.84 244.709 99.968 244.282 99.968C243.685 99.968 242.874 99.968 241.85 99.968C240.911 99.968 239.973 99.968 239.034 99.968C236.047 99.968 233.701 99.4133 231.994 98.304C230.373 97.1093 229.349 95.5307 228.922 93.568C228.581 91.6053 228.709 89.4293 229.306 87.04C230.074 83.8827 230.842 80.8107 231.61 77.824C232.378 74.752 233.103 71.808 233.786 68.992C234.554 66.176 235.279 63.5307 235.962 61.056C236.645 58.496 237.242 56.192 237.754 54.144C238.607 50.6453 238.565 48.0853 237.626 46.464C236.687 44.8427 234.895 44.032 232.25 44.032C230.373 44.032 228.41 44.544 226.362 45.568C224.314 46.592 222.138 48.1707 219.834 50.304C217.53 52.4373 214.97 55.1253 212.154 58.368L213.306 43.008H219.45C221.327 40.2773 223.29 37.9733 225.338 36.096C227.386 34.2187 229.605 32.768 231.994 31.744C234.383 30.72 237.071 30.208 240.058 30.208ZM270.856 31.616C273.672 31.616 276.36 31.616 278.92 31.616C281.48 31.616 284.04 31.616 286.6 31.616C289.245 31.616 291.976 31.616 294.792 31.616C295.048 31.616 295.261 31.6587 295.432 31.744C295.603 31.8293 295.731 32 295.816 32.256C295.901 32.4267 295.901 32.6827 295.816 33.024C294.792 37.0347 293.768 41.088 292.744 45.184C291.72 49.1947 290.696 53.248 289.672 57.344C288.733 61.3547 287.752 65.408 286.728 69.504C285.704 73.6 284.68 77.696 283.656 81.792C283.229 83.1573 283.016 84.2667 283.016 85.12C283.101 85.9733 283.357 86.6133 283.784 87.04C284.125 87.3813 284.595 87.6373 285.192 87.808C285.875 87.9787 286.728 88.064 287.752 88.064C288.349 88.064 288.989 88.064 289.672 88.064C290.44 88.064 291.123 88.064 291.72 88.064H293.768C293.341 89.856 292.915 91.648 292.488 93.44C292.061 95.232 291.592 97.024 291.08 98.816C290.995 99.328 290.824 99.6693 290.568 99.84C290.312 99.9253 289.928 99.968 289.416 99.968C289.245 99.968 288.904 99.968 288.392 99.968C287.965 99.968 287.453 99.968 286.856 99.968C286.344 99.968 285.789 99.968 285.192 99.968C281.693 99.968 278.792 99.4987 276.488 98.56C274.269 97.6213 272.563 96.2987 271.368 94.592C270.259 92.8853 269.619 90.9227 269.448 88.704C269.277 86.4853 269.533 84.0533 270.216 81.408C270.984 78.1653 271.752 74.9653 272.52 71.808C273.288 68.6507 274.056 65.4933 274.824 62.336C275.677 59.1787 276.488 56.0213 277.256 52.864C278.109 49.7067 278.92 46.592 279.688 43.52H277.128C276.104 43.52 275.165 43.52 274.312 43.52C273.544 43.52 272.733 43.52 271.88 43.52C271.112 43.52 270.216 43.52 269.192 43.52C268.851 43.52 268.552 43.392 268.296 43.136C268.125 42.88 268.083 42.5387 268.168 42.112C268.595 40.4053 269.021 38.656 269.448 36.864C269.96 35.072 270.429 33.3227 270.856 31.616ZM287.752 0C289.117 0 290.483 0 291.848 0C293.299 0 294.707 0 296.072 0C297.523 0 298.931 0 300.296 0C301.747 0 303.155 0 304.52 0C304.947 0 305.245 0.127998 305.416 0.383995C305.672 0.639997 305.715 0.981331 305.544 1.408L302.088 15.36C300.723 15.36 299.315 15.36 297.864 15.36C296.499 15.36 295.091 15.36 293.64 15.36C292.275 15.36 290.867 15.36 289.416 15.36C288.051 15.36 286.685 15.36 285.32 15.36C284.893 15.36 284.595 15.232 284.424 14.976C284.253 14.72 284.211 14.3787 284.296 13.952L287.752 0ZM319.83 31.616C321.537 31.616 323.329 31.616 325.206 31.616C327.083 31.616 328.875 31.616 330.582 31.616C332.374 31.616 333.91 31.616 335.19 31.616C335.617 31.616 335.958 31.6587 336.214 31.744C336.47 31.8293 336.683 32 336.854 32.256C337.11 32.4267 337.281 32.7253 337.366 33.152C338.731 37.504 340.139 42.0267 341.59 46.72C343.126 51.4133 344.619 56.064 346.07 60.672C347.521 65.28 348.886 69.7173 350.166 73.984C351.531 78.1653 352.811 81.9627 354.006 85.376C354.347 86.4853 354.859 87.2533 355.542 87.68C356.225 88.0213 357.206 88.192 358.486 88.192C359.169 88.192 359.809 88.192 360.406 88.192C361.089 88.192 361.729 88.192 362.326 88.192C363.009 88.192 363.649 88.192 364.246 88.192H366.038C365.953 88.448 365.825 88.9173 365.654 89.6C365.569 90.1973 365.398 90.9227 365.142 91.776C364.971 92.544 364.758 93.312 364.502 94.08C364.331 94.848 364.161 95.5733 363.99 96.256C363.905 96.8533 363.819 97.3227 363.734 97.664C363.563 98.5173 363.265 99.1147 362.838 99.456C362.497 99.7973 361.899 99.968 361.046 99.968C360.534 99.968 359.894 99.968 359.126 99.968C358.358 99.968 357.59 99.968 356.822 99.968C356.139 99.968 355.499 99.968 354.902 99.968C352.854 99.968 351.019 99.712 349.398 99.2C347.862 98.688 346.539 97.7493 345.43 96.384C344.406 94.9333 343.467 92.8853 342.614 90.24C341.334 86.656 340.054 82.944 338.774 79.104C337.494 75.1787 336.171 71.2107 334.806 67.2C333.441 63.104 332.075 59.0933 330.71 55.168C329.43 51.1573 328.15 47.232 326.87 43.392H324.822C324.225 43.392 323.585 43.392 322.902 43.392C322.219 43.392 321.494 43.392 320.726 43.392C319.958 43.392 319.147 43.392 318.294 43.392C317.867 43.392 317.569 43.264 317.398 43.008C317.227 42.752 317.185 42.4107 317.27 41.984C317.611 40.7893 317.91 39.5947 318.166 38.4C318.507 37.2053 318.806 36.0533 319.062 34.944C319.403 33.7493 319.659 32.64 319.83 31.616ZM338.646 73.6H334.678C332.118 79.1467 329.985 83.6693 328.278 87.168C326.571 90.6667 324.993 93.3973 323.542 95.36C322.091 97.3227 320.513 98.7307 318.806 99.584C317.185 100.352 315.094 100.821 312.534 100.992C310.059 101.163 306.902 101.248 303.062 101.248C302.55 101.248 302.209 101.077 302.038 100.736C301.782 100.48 301.697 100.096 301.782 99.584C301.953 98.7307 302.209 97.7067 302.55 96.512C302.891 95.3173 303.233 94.08 303.574 92.8C303.915 91.4347 304.214 90.1547 304.47 88.96H305.494C305.921 88.96 306.433 88.96 307.03 88.96C307.713 88.96 308.481 88.96 309.334 88.96C310.614 88.96 311.723 88.7467 312.662 88.32C313.686 87.808 314.667 86.912 315.606 85.632C316.459 84.6933 317.526 83.456 318.806 81.92C320.086 80.384 321.579 78.6347 323.286 76.672C325.078 74.624 326.998 72.3627 329.046 69.888C331.179 67.4133 333.441 64.7253 335.83 61.824L338.646 73.6ZM343.51 57.6H347.35C349.995 52.1387 352.171 47.7013 353.878 44.288C355.585 40.7893 357.121 38.1013 358.486 36.224C359.851 34.2613 361.345 32.896 362.966 32.128C364.587 31.2747 366.593 30.7627 368.982 30.592C371.371 30.4213 374.443 30.336 378.198 30.336C378.71 30.336 379.094 30.5067 379.35 30.848C379.606 31.104 379.649 31.488 379.478 32C379.307 32.768 379.051 33.792 378.71 35.072C378.369 36.2667 378.027 37.504 377.686 38.784C377.43 40.064 377.131 41.344 376.79 42.624H375.766C375.339 42.624 374.913 42.624 374.486 42.624C374.059 42.624 373.419 42.624 372.566 42.624C371.286 42.624 370.177 42.88 369.238 43.392C368.385 43.8187 367.403 44.672 366.294 45.952C365.441 46.8907 364.374 48.128 363.094 49.664C361.899 51.2 360.406 52.992 358.614 55.04C356.907 57.088 355.03 59.3067 352.982 61.696C350.934 64.0853 348.715 66.6453 346.326 69.376L343.51 57.6Z" fill="#121212"/>
</svg>
