<svg width="484" height="155" viewBox="0 0 484 155" fill="none" xmlns="http://www.w3.org/2000/svg">
<path d="M115.822 83.472C116.846 87.1413 117.87 90.8107 118.894 94.48C119.918 98.1493 120.942 101.819 121.966 105.488C122.478 107.195 123.075 108.347 123.758 108.944C124.441 109.456 125.379 109.712 126.574 109.712C127.086 109.712 127.513 109.712 127.854 109.712C128.281 109.712 128.665 109.712 129.006 109.712H130.926C130.414 111.589 129.945 113.467 129.518 115.344C129.091 117.136 128.622 119.013 128.11 120.976C128.025 121.403 127.811 121.744 127.47 122C127.129 122.256 126.745 122.384 126.318 122.384C125.977 122.384 125.55 122.384 125.038 122.384C124.526 122.384 124.014 122.384 123.502 122.384C120.942 122.384 118.809 122.085 117.102 121.488C115.481 120.805 114.115 119.781 113.006 118.416C111.982 117.051 111.129 115.216 110.446 112.912C109.251 108.389 108.014 103.867 106.734 99.344C105.539 94.8213 104.302 90.3413 103.022 85.904L115.822 83.472ZM82.414 32.4C88.2167 32.4 93.9767 32.4 99.694 32.4C105.411 32.4 111.171 32.4 116.974 32.4C121.241 32.4 124.995 32.9973 128.238 34.192C131.566 35.3013 134.211 37.008 136.174 39.312C138.222 41.5307 139.545 44.3467 140.142 47.76C140.739 51.088 140.483 54.9707 139.374 59.408L137.582 66.064C136.643 69.9893 135.278 73.4027 133.486 76.304C131.694 79.12 129.518 81.4667 126.958 83.344C124.398 85.136 121.411 86.5013 117.998 87.44C114.585 88.3787 110.745 88.848 106.478 88.848C103.235 88.848 100.078 88.848 97.006 88.848C93.934 88.848 90.9047 88.848 87.918 88.848L86.382 89.488L89.582 77.2C92.4833 77.2 95.3847 77.2 98.286 77.2C101.273 77.2 104.217 77.2 107.118 77.2C110.19 77.2 112.793 76.816 114.926 76.048C117.145 75.1947 118.937 73.872 120.302 72.08C121.753 70.288 122.819 67.984 123.502 65.168L125.294 58C125.977 55.5253 126.19 53.4347 125.934 51.728C125.678 49.936 124.995 48.528 123.886 47.504C123.033 46.5653 121.881 45.8827 120.43 45.456C119.065 45.0293 117.273 44.816 115.054 44.816C111.299 44.816 107.502 44.816 103.662 44.816C99.822 44.816 95.982 44.816 92.142 44.816C88.3873 44.816 84.59 44.816 80.75 44.816C80.3233 44.816 80.0247 44.688 79.854 44.432C79.6833 44.0907 79.6407 43.7493 79.726 43.408C80.1527 41.5307 80.5793 39.696 81.006 37.904C81.518 36.0267 81.9873 34.192 82.414 32.4ZM81.134 122C79.0007 122 76.91 122 74.862 122C72.8993 122 70.8087 122 68.59 122C68.078 122 67.7367 121.872 67.566 121.616C67.3953 121.36 67.3527 121.019 67.438 120.592C69.23 113.595 70.9367 106.768 72.558 100.112C74.2647 93.3707 75.9287 86.7147 77.55 80.144C79.2567 73.488 80.9207 66.7893 82.542 60.048C84.2487 53.3067 85.998 46.48 87.79 39.568H102.894L100.974 42.384C100.206 45.456 99.438 48.528 98.67 51.6C97.902 54.672 97.1767 57.7013 96.494 60.688C95.1287 66.064 93.7633 71.3973 92.398 76.688C91.118 81.9787 89.7953 87.312 88.43 92.688C87.0647 98.064 85.6567 103.611 84.206 109.328C83.6087 111.632 83.054 113.851 82.542 115.984C82.03 118.117 81.5607 120.123 81.134 122ZM187.226 52.24C191.663 52.24 195.503 52.88 198.746 54.16C202.074 55.44 204.762 57.1467 206.81 59.28C208.858 61.4133 210.181 63.9307 210.778 66.832C211.461 69.648 211.375 72.6347 210.522 75.792L210.01 77.84C208.986 81.7653 207.322 84.9653 205.018 87.44C202.714 89.9147 199.813 91.7493 196.314 92.944C192.815 94.0533 188.591 94.608 183.642 94.608C181.85 94.608 179.674 94.608 177.114 94.608C174.639 94.608 171.909 94.608 168.922 94.608C166.021 94.608 162.991 94.608 159.834 94.608L154.074 95.248L155.866 85.648C159.45 85.648 162.821 85.648 165.978 85.648C169.221 85.648 172.293 85.648 175.194 85.648C178.095 85.648 180.911 85.648 183.642 85.648C187.226 85.648 190.17 84.9227 192.474 83.472C194.863 81.936 196.442 79.5893 197.21 76.432C197.722 74.384 197.807 72.5493 197.466 70.928C197.21 69.2213 196.485 67.7707 195.29 66.576C194.266 65.6373 192.943 64.912 191.322 64.4C189.701 63.8027 187.653 63.504 185.178 63.504C181.85 63.504 178.863 64.0587 176.218 65.168C173.658 66.2773 171.439 68.112 169.562 70.672C167.685 73.1467 166.234 76.3893 165.21 80.4L161.498 95.248C160.73 98.064 160.474 100.539 160.73 102.672C161.071 104.72 161.839 106.384 163.034 107.664C164.314 109.115 166.063 110.181 168.282 110.864C170.586 111.547 173.487 111.888 176.986 111.888C180.058 111.888 182.789 111.717 185.178 111.376C187.653 111.035 189.957 110.565 192.09 109.968C194.309 109.285 196.613 108.475 199.002 107.536H201.05C200.709 109.157 200.282 110.821 199.77 112.528C199.343 114.149 198.917 115.813 198.49 117.52C198.405 117.691 198.319 117.861 198.234 118.032C198.149 118.203 198.021 118.373 197.85 118.544C196.997 119.397 195.503 120.208 193.37 120.976C191.322 121.744 188.762 122.341 185.69 122.768C182.703 123.195 179.418 123.408 175.834 123.408C170.458 123.408 165.765 122.725 161.754 121.36C157.829 119.995 154.671 118.032 152.282 115.472C149.893 112.827 148.357 109.669 147.674 106C146.991 102.331 147.205 98.192 148.314 93.584L151.77 79.76C153.05 74.896 154.799 70.7573 157.018 67.344C159.237 63.8453 161.882 60.9867 164.954 58.768C168.026 56.5493 171.439 54.928 175.194 53.904C179.034 52.7947 183.045 52.24 187.226 52.24ZM237.352 53.648C238.12 53.648 238.931 53.648 239.784 53.648C240.723 53.648 241.661 53.648 242.6 53.648C243.624 53.648 244.605 53.648 245.544 53.648C246.483 53.648 247.336 53.648 248.104 53.648C248.104 53.648 248.104 54.3733 248.104 55.824C248.104 57.2747 248.061 58.9813 247.976 60.944C247.976 62.8213 247.976 64.4853 247.976 65.936C247.976 67.3013 247.976 68.0267 247.976 68.112C246.781 72.8907 245.416 78.224 243.88 84.112C242.429 90 240.893 96.144 239.272 102.544C237.736 108.944 236.115 115.429 234.408 122C233.469 122 232.445 122 231.336 122C230.227 122 229.117 122 228.008 122C226.899 122 225.789 122 224.68 122C223.571 122 222.547 122 221.608 122C221.437 122 221.267 121.957 221.096 121.872C220.925 121.787 220.797 121.701 220.712 121.616C220.627 121.445 220.541 121.275 220.456 121.104C220.456 120.933 220.499 120.763 220.584 120.592C222.035 114.533 223.485 108.517 224.936 102.544C226.472 96.5707 228.008 90.5547 229.544 84.496C231.08 78.4373 232.616 72.4213 234.152 66.448C234.749 63.888 235.304 61.5413 235.816 59.408C236.413 57.1893 236.925 55.2693 237.352 53.648ZM271.528 52.24C273.917 52.24 276.008 52.6667 277.8 53.52C279.677 54.288 281.128 55.5253 282.152 57.232C283.261 58.8533 283.901 60.9867 284.072 63.632C284.243 66.192 283.901 69.2213 283.048 72.72C282.707 74.256 282.152 76.4747 281.384 79.376C280.701 82.2773 279.805 85.8613 278.696 90.128C277.672 94.3093 276.477 99.088 275.112 104.464C273.832 109.84 272.381 115.685 270.76 122C269.736 122 268.413 122 266.792 122C265.171 122 263.507 122 261.8 122C260.179 122 258.813 122 257.704 122C257.448 122 257.235 121.957 257.064 121.872C256.893 121.701 256.765 121.531 256.68 121.36C256.595 121.104 256.595 120.848 256.68 120.592C257.704 116.411 258.728 112.272 259.752 108.176C260.776 104.08 261.757 100.155 262.696 96.4C263.72 92.56 264.659 88.9333 265.512 85.52C266.451 82.0213 267.261 78.9067 267.944 76.176C268.627 73.4453 268.84 71.3547 268.584 69.904C268.413 68.4533 267.859 67.472 266.92 66.96C266.067 66.3627 264.872 66.064 263.336 66.064C261.459 66.064 259.453 66.6613 257.32 67.856C255.272 68.9653 253.096 70.672 250.792 72.976C248.488 75.1947 246.013 77.9253 243.368 81.168L243.752 65.04H250.28C252.328 62.3093 254.461 60.0053 256.68 58.128C258.984 56.2507 261.331 54.8 263.72 53.776C266.195 52.752 268.797 52.24 271.528 52.24ZM307.368 52.24C309.928 52.24 312.147 52.7093 314.024 53.648C315.901 54.5013 317.437 55.824 318.632 57.616C319.912 59.408 320.637 61.6693 320.808 64.4C321.064 67.0453 320.765 70.1173 319.912 73.616C319.315 75.8347 318.547 78.7787 317.608 82.448C316.755 86.032 315.773 90.0427 314.664 94.48C313.555 98.832 312.403 103.312 311.208 107.92C311.123 108.261 311.08 108.603 311.08 108.944C311.08 109.2 311.165 109.456 311.336 109.712C311.592 109.883 311.848 110.053 312.104 110.224C312.36 110.309 312.701 110.352 313.128 110.352C313.384 110.352 313.64 110.352 313.896 110.352C314.152 110.352 314.408 110.352 314.664 110.352H315.944C315.517 112.059 315.091 113.765 314.664 115.472C314.237 117.179 313.811 118.885 313.384 120.592C313.299 121.019 313.085 121.36 312.744 121.616C312.403 121.872 312.019 122 311.592 122C310.995 122 310.184 122 309.16 122C308.221 122 307.283 122 306.344 122C303.357 122 301.011 121.445 299.304 120.336C297.683 119.141 296.659 117.563 296.232 115.6C295.891 113.637 296.019 111.461 296.616 109.072C297.384 105.915 298.152 102.843 298.92 99.856C299.688 96.784 300.413 93.84 301.096 91.024C301.864 88.208 302.589 85.5627 303.272 83.088C303.955 80.528 304.552 78.224 305.064 76.176C305.917 72.6773 305.875 70.1173 304.936 68.496C303.997 66.8747 302.205 66.064 299.56 66.064C297.683 66.064 295.72 66.576 293.672 67.6C291.624 68.624 289.448 70.2027 287.144 72.336C284.84 74.4693 282.28 77.1573 279.464 80.4L280.616 65.04H286.76C288.637 62.3093 290.6 60.0053 292.648 58.128C294.696 56.2507 296.915 54.8 299.304 53.776C301.693 52.752 304.381 52.24 307.368 52.24ZM338.166 53.648C340.982 53.648 343.67 53.648 346.23 53.648C348.79 53.648 351.35 53.648 353.91 53.648C356.555 53.648 359.286 53.648 362.102 53.648C362.358 53.648 362.571 53.6907 362.742 53.776C362.913 53.8613 363.041 54.032 363.126 54.288C363.211 54.4587 363.211 54.7147 363.126 55.056C362.102 59.0667 361.078 63.12 360.054 67.216C359.03 71.2267 358.006 75.28 356.982 79.376C356.043 83.3867 355.062 87.44 354.038 91.536C353.014 95.632 351.99 99.728 350.966 103.824C350.539 105.189 350.326 106.299 350.326 107.152C350.411 108.005 350.667 108.645 351.094 109.072C351.435 109.413 351.905 109.669 352.502 109.84C353.185 110.011 354.038 110.096 355.062 110.096C355.659 110.096 356.299 110.096 356.982 110.096C357.75 110.096 358.433 110.096 359.03 110.096H361.078C360.651 111.888 360.225 113.68 359.798 115.472C359.371 117.264 358.902 119.056 358.39 120.848C358.305 121.36 358.134 121.701 357.878 121.872C357.622 121.957 357.238 122 356.726 122C356.555 122 356.214 122 355.702 122C355.275 122 354.763 122 354.166 122C353.654 122 353.099 122 352.502 122C349.003 122 346.102 121.531 343.798 120.592C341.579 119.653 339.873 118.331 338.678 116.624C337.569 114.917 336.929 112.955 336.758 110.736C336.587 108.517 336.843 106.085 337.526 103.44C338.294 100.197 339.062 96.9973 339.83 93.84C340.598 90.6827 341.366 87.5253 342.134 84.368C342.987 81.2107 343.798 78.0533 344.566 74.896C345.419 71.7387 346.23 68.624 346.998 65.552H344.438C343.414 65.552 342.475 65.552 341.622 65.552C340.854 65.552 340.043 65.552 339.19 65.552C338.422 65.552 337.526 65.552 336.502 65.552C336.161 65.552 335.862 65.424 335.606 65.168C335.435 64.912 335.393 64.5707 335.478 64.144C335.905 62.4373 336.331 60.688 336.758 58.896C337.27 57.104 337.739 55.3547 338.166 53.648ZM355.062 22.032C356.427 22.032 357.793 22.032 359.158 22.032C360.609 22.032 362.017 22.032 363.382 22.032C364.833 22.032 366.241 22.032 367.606 22.032C369.057 22.032 370.465 22.032 371.83 22.032C372.257 22.032 372.555 22.16 372.726 22.416C372.982 22.672 373.025 23.0133 372.854 23.44L369.398 37.392C368.033 37.392 366.625 37.392 365.174 37.392C363.809 37.392 362.401 37.392 360.95 37.392C359.585 37.392 358.177 37.392 356.726 37.392C355.361 37.392 353.995 37.392 352.63 37.392C352.203 37.392 351.905 37.264 351.734 37.008C351.563 36.752 351.521 36.4107 351.606 35.984L355.062 22.032ZM387.14 53.648C388.847 53.648 390.639 53.648 392.516 53.648C394.393 53.648 396.185 53.648 397.892 53.648C399.684 53.648 401.22 53.648 402.5 53.648C402.927 53.648 403.268 53.6907 403.524 53.776C403.78 53.8613 403.993 54.032 404.164 54.288C404.42 54.4587 404.591 54.7573 404.676 55.184C406.041 59.536 407.449 64.0587 408.9 68.752C410.436 73.4453 411.929 78.096 413.38 82.704C414.831 87.312 416.196 91.7493 417.476 96.016C418.841 100.197 420.121 103.995 421.316 107.408C421.657 108.517 422.169 109.285 422.852 109.712C423.535 110.053 424.516 110.224 425.796 110.224C426.479 110.224 427.119 110.224 427.716 110.224C428.399 110.224 429.039 110.224 429.636 110.224C430.319 110.224 430.959 110.224 431.556 110.224H433.348C433.263 110.48 433.135 110.949 432.964 111.632C432.879 112.229 432.708 112.955 432.452 113.808C432.281 114.576 432.068 115.344 431.812 116.112C431.641 116.88 431.471 117.605 431.3 118.288C431.215 118.885 431.129 119.355 431.044 119.696C430.873 120.549 430.575 121.147 430.148 121.488C429.807 121.829 429.209 122 428.356 122C427.844 122 427.204 122 426.436 122C425.668 122 424.9 122 424.132 122C423.449 122 422.809 122 422.212 122C420.164 122 418.329 121.744 416.708 121.232C415.172 120.72 413.849 119.781 412.74 118.416C411.716 116.965 410.777 114.917 409.924 112.272C408.644 108.688 407.364 104.976 406.084 101.136C404.804 97.2107 403.481 93.2427 402.116 89.232C400.751 85.136 399.385 81.1253 398.02 77.2C396.74 73.1893 395.46 69.264 394.18 65.424H392.132C391.535 65.424 390.895 65.424 390.212 65.424C389.529 65.424 388.804 65.424 388.036 65.424C387.268 65.424 386.457 65.424 385.604 65.424C385.177 65.424 384.879 65.296 384.708 65.04C384.537 64.784 384.495 64.4427 384.58 64.016C384.921 62.8213 385.22 61.6267 385.476 60.432C385.817 59.2373 386.116 58.0853 386.372 56.976C386.713 55.7813 386.969 54.672 387.14 53.648ZM405.956 95.632H401.988C399.428 101.179 397.295 105.701 395.588 109.2C393.881 112.699 392.303 115.429 390.852 117.392C389.401 119.355 387.823 120.763 386.116 121.616C384.495 122.384 382.404 122.853 379.844 123.024C377.369 123.195 374.212 123.28 370.372 123.28C369.86 123.28 369.519 123.109 369.348 122.768C369.092 122.512 369.007 122.128 369.092 121.616C369.263 120.763 369.519 119.739 369.86 118.544C370.201 117.349 370.543 116.112 370.884 114.832C371.225 113.467 371.524 112.187 371.78 110.992H372.804C373.231 110.992 373.743 110.992 374.34 110.992C375.023 110.992 375.791 110.992 376.644 110.992C377.924 110.992 379.033 110.779 379.972 110.352C380.996 109.84 381.977 108.944 382.916 107.664C383.769 106.725 384.836 105.488 386.116 103.952C387.396 102.416 388.889 100.667 390.596 98.704C392.388 96.656 394.308 94.3947 396.356 91.92C398.489 89.4453 400.751 86.7573 403.14 83.856L405.956 95.632ZM410.82 79.632H414.66C417.305 74.1707 419.481 69.7333 421.188 66.32C422.895 62.8213 424.431 60.1333 425.796 58.256C427.161 56.2933 428.655 54.928 430.276 54.16C431.897 53.3067 433.903 52.7947 436.292 52.624C438.681 52.4533 441.753 52.368 445.508 52.368C446.02 52.368 446.404 52.5387 446.66 52.88C446.916 53.136 446.959 53.52 446.788 54.032C446.617 54.8 446.361 55.824 446.02 57.104C445.679 58.2987 445.337 59.536 444.996 60.816C444.74 62.096 444.441 63.376 444.1 64.656H443.076C442.649 64.656 442.223 64.656 441.796 64.656C441.369 64.656 440.729 64.656 439.876 64.656C438.596 64.656 437.487 64.912 436.548 65.424C435.695 65.8507 434.713 66.704 433.604 67.984C432.751 68.9227 431.684 70.16 430.404 71.696C429.209 73.232 427.716 75.024 425.924 77.072C424.217 79.12 422.34 81.3387 420.292 83.728C418.244 86.1173 416.025 88.6773 413.636 91.408L410.82 79.632Z" fill="#232323"/>
<rect y="53" width="56" height="56" rx="6" fill="#FF0000"/>
</svg>
